<svg width="60" height="60" viewBox="0 0 60 60" fill="none" xmlns="http://www.w3.org/2000/svg">
<path d="M30.0002 0C13.4317 0 0 13.4317 0 30.0002C0 44.8602 10.8157 57.1667 24.9967 59.5498V36.259H17.7598V27.8776H24.9967V21.6975C24.9967 14.5268 29.3764 10.6192 35.7741 10.6192C38.8382 10.6192 41.4715 10.8475 42.2359 10.9481V18.4434L37.7986 18.4455C34.3201 18.4455 33.6494 20.0982 33.6494 22.5242V27.8733H41.9496L40.867 36.2547H33.6494V59.7502C48.4926 57.9437 60 45.3236 60 29.9916C60 13.4317 46.5683 0 30.0002 0Z" fill="white"/>
</svg>
