<svg width="60" height="60" viewBox="0 0 60 60" fill="none" xmlns="http://www.w3.org/2000/svg">
<path d="M35.7422 30C35.7422 33.1714 33.1714 35.7422 30 35.7422C26.8286 35.7422 24.2578 33.1714 24.2578 30C24.2578 26.8286 26.8286 24.2578 30 24.2578C33.1714 24.2578 35.7422 26.8286 35.7422 30Z" fill="white"/>
<path d="M43.4288 19.8405C43.1528 19.0926 42.7124 18.4155 42.1402 17.8598C41.5845 17.2876 40.9079 16.8472 40.1595 16.5712C39.5525 16.3354 38.6406 16.0548 36.9611 15.9784C35.1442 15.8955 34.5995 15.8777 29.9999 15.8777C25.3998 15.8777 24.8551 15.8951 23.0387 15.9779C21.3591 16.0548 20.4468 16.3354 19.8403 16.5712C19.0918 16.8472 18.4148 17.2876 17.8595 17.8598C17.2873 18.4155 16.847 19.0921 16.5705 19.8405C16.3347 20.4475 16.0541 21.3599 15.9777 23.0394C15.8948 24.8558 15.877 25.4005 15.877 30.0006C15.877 34.6002 15.8948 35.145 15.9777 36.9618C16.0541 38.6414 16.3347 39.5532 16.5705 40.1602C16.847 40.9087 17.2869 41.5852 17.8591 42.141C18.4148 42.7132 19.0914 43.1535 19.8398 43.4296C20.4468 43.6658 21.3591 43.9464 23.0387 44.0228C24.8551 44.1057 25.3994 44.1231 29.9994 44.1231C34.5999 44.1231 35.1447 44.1057 36.9606 44.0228C38.6402 43.9464 39.5525 43.6658 40.1595 43.4296C41.6619 42.85 42.8493 41.6626 43.4288 40.1602C43.6646 39.5532 43.9452 38.6414 44.0221 36.9618C44.1049 35.145 44.1223 34.6002 44.1223 30.0006C44.1223 25.4005 44.1049 24.8558 44.0221 23.0394C43.9456 21.3599 43.665 20.4475 43.4288 19.8405ZM29.9999 38.846C25.1142 38.846 21.1536 34.8859 21.1536 30.0002C21.1536 25.1144 25.1142 21.1543 29.9999 21.1543C34.8851 21.1543 38.8457 25.1144 38.8457 30.0002C38.8457 34.8859 34.8851 38.846 29.9999 38.846ZM39.1954 22.8719C38.0538 22.8719 37.1282 21.9463 37.1282 20.8046C37.1282 19.6629 38.0538 18.7373 39.1954 18.7373C40.3371 18.7373 41.2627 19.6629 41.2627 20.8046C41.2622 21.9463 40.3371 22.8719 39.1954 22.8719Z" fill="white"/>
<path d="M30 0C13.434 0 0 13.434 0 30C0 46.566 13.434 60 30 60C46.566 60 60 46.566 60 30C60 13.434 46.566 0 30 0ZM47.1227 37.1022C47.0393 38.936 46.7477 40.188 46.322 41.2839C45.4271 43.5979 43.5979 45.4271 41.2839 46.322C40.1884 46.7477 38.936 47.0389 37.1027 47.1227C35.2657 47.2064 34.6788 47.2266 30.0005 47.2266C25.3217 47.2266 24.7353 47.2064 22.8978 47.1227C21.0645 47.0389 19.812 46.7477 18.7166 46.322C17.5667 45.8894 16.5257 45.2115 15.6651 44.3349C14.789 43.4747 14.111 42.4333 13.6784 41.2839C13.2527 40.1884 12.9611 38.936 12.8778 37.1027C12.7931 35.2652 12.7734 34.6783 12.7734 30C12.7734 25.3217 12.7931 24.7348 12.8773 22.8978C12.9607 21.064 13.2518 19.812 13.6775 18.7161C14.1101 17.5667 14.7885 16.5253 15.6651 15.6651C16.5253 14.7885 17.5667 14.1106 18.7161 13.678C19.812 13.2523 21.064 12.9611 22.8978 12.8773C24.7348 12.7936 25.3217 12.7734 30 12.7734C34.6783 12.7734 35.2652 12.7936 37.1022 12.8778C38.936 12.9611 40.188 13.2523 41.2839 13.6775C42.4333 14.1101 43.4747 14.7885 44.3353 15.6651C45.2115 16.5257 45.8899 17.5667 46.322 18.7161C46.7482 19.812 47.0393 21.064 47.1231 22.8978C47.2069 24.7348 47.2266 25.3217 47.2266 30C47.2266 34.6783 47.2069 35.2652 47.1227 37.1022Z" fill="white"/>
</svg>
