<svg width="85" height="85" viewBox="0 0 85 85" fill="none" xmlns="http://www.w3.org/2000/svg">
<path d="M62.5879 2.65625C50.2297 2.65625 40.1758 12.7102 40.1758 25.0684C40.1758 37.4266 50.2297 47.4805 62.5879 47.4805C74.9461 47.4805 85 37.4266 85 25.0684C85 12.7102 74.9461 2.65625 62.5879 2.65625ZM62.5879 37.5195C59.5797 37.5195 56.877 35.7282 55.7049 32.9574L60.2919 31.0167C60.6837 31.9414 61.5852 32.5391 62.5879 32.5391C63.9608 32.5391 65.0781 31.4218 65.0781 30.0488C65.0781 28.6759 63.9608 27.5586 62.5879 27.5586C58.469 27.5586 55.1172 24.2067 55.1172 20.0879C55.1172 15.969 58.469 12.6172 62.5879 12.6172C65.5961 12.6172 68.2988 14.4085 69.4709 17.1793L64.8839 19.12C64.4921 18.1953 63.5923 17.5977 62.5879 17.5977C61.2149 17.5977 60.0977 18.7149 60.0977 20.0879C60.0977 21.4608 61.2149 22.5781 62.5879 22.5781C66.7067 22.5781 70.0586 25.93 70.0586 30.0488C70.0586 34.1677 66.7067 37.5195 62.5879 37.5195Z" fill="#FFDA45"/>
<path d="M74.7137 49.6287C71.0564 51.4416 66.9392 52.4609 62.5879 52.4609C48.3238 52.4609 36.5699 41.5006 35.3065 27.5586H30.0488C26.5509 27.5586 23.194 28.2675 20.0464 29.6687C17.4914 28.2841 14.6708 27.5586 11.8087 27.5586H4.18193L8.44521 40.3501C8.02022 41.0922 7.65166 41.8011 7.33457 42.5H0V62.4219H7.31963C9.26533 66.8462 12.4993 70.6629 16.5617 73.2926C18.7697 74.722 20.0879 77.1425 20.0879 79.7672V82.3438H35.0293V77.3633H49.9707V82.3438H64.9121V79.8535C64.9121 75.6865 66.3863 71.6324 69.0642 68.4383C73.6246 62.9996 75.469 56.1282 74.7137 49.6287ZM25.0684 47.4805H20.0879V42.5H25.0684V47.4805Z" fill="#FFDA45"/>
</svg>
