<svg width="85" height="85" viewBox="0 0 85 85" fill="none" xmlns="http://www.w3.org/2000/svg">
<g clip-path="url(#clip0)">
<path d="M56.0971 59.5701L59.9841 53.2628L66.9986 50.8705L67.7757 43.5032L73.0531 38.3078L70.544 31.3341L73.0531 24.3603L67.7758 19.1648L66.9987 11.7977L59.9842 9.40545L56.0973 3.09802L48.7453 3.9857L42.5 0L36.2546 3.98604L28.9028 3.09835L25.0159 9.40561L18.0014 11.7979L17.2242 19.165L11.9468 24.3605L14.4559 31.3343L11.9468 38.3081L17.2241 43.5034L18.0012 50.8707L25.0157 53.263L28.9026 59.5702L36.2546 58.6827L42.5 62.6686L48.7453 58.6827L56.0971 59.5701ZM21.0127 31.3343C21.0127 19.4862 30.6519 9.84705 42.5 9.84705C54.348 9.84705 63.9872 19.4862 63.9872 31.3343C63.9872 43.1823 54.348 52.8215 42.5 52.8215C30.6519 52.8215 21.0127 43.1823 21.0127 31.3343Z" fill="#FFDA45"/>
<path d="M42.5 14.8307C33.3998 14.8307 25.9963 22.2341 25.9963 31.3343C25.9963 40.4344 33.3998 47.8379 42.5 47.8379C51.6001 47.8379 59.0036 40.4344 59.0036 31.3343C59.0036 22.2341 51.6001 14.8307 42.5 14.8307Z" fill="#FFDA45"/>
<path d="M35.0791 63.8444L26.3334 64.9002L21.7126 57.4018L20.1418 56.8662L13.3662 78.0442L25.5642 77.3733L35.1076 85.0001L40.7236 67.4469L35.0791 63.8444Z" fill="#FFDA45"/>
<path d="M63.2876 57.402L58.6667 64.9002L49.9211 63.8444L44.2766 67.4469L49.8926 85.0001L59.436 77.3733L71.634 78.0442L64.8584 56.8662L63.2876 57.402Z" fill="#FFDA45"/>
</g>
<defs>
<clipPath id="clip0">
<rect width="85" height="85" fill="white"/>
</clipPath>
</defs>
</svg>
