<svg width="175" height="175" viewBox="0 0 175 175" fill="none" xmlns="http://www.w3.org/2000/svg">
<path d="M87.5 0C39.2506 0 0 39.2506 0 87.5C0 135.749 39.2506 175 87.5 175C135.749 175 175 135.749 175 87.5C175 39.2506 135.749 0 87.5 0Z" fill="#FFDA45"/>
<path d="M94.7912 131.25C94.7912 135.277 91.5268 138.541 87.5 138.541C83.4732 138.541 80.2087 135.277 80.2087 131.25C80.2087 127.223 83.4732 123.959 87.5 123.959C91.5268 123.959 94.7912 127.223 94.7912 131.25Z" fill="#330099"/>
<path d="M99.0423 92.1811C96.4615 93.3693 94.7912 95.9729 94.7912 98.8101V102.084C94.7912 106.108 91.5321 109.375 87.5 109.375C83.4679 109.375 80.2088 106.108 80.2088 102.084V98.8101C80.2088 90.2998 85.2102 82.4986 92.9327 78.9324C100.363 75.5131 105.729 66.4341 105.729 61.9788C105.729 51.9318 97.555 43.75 87.5 43.75C77.445 43.75 69.2713 51.9318 69.2713 61.9788C69.2713 66.0042 66.0109 69.2713 61.9787 69.2713C57.9466 69.2713 54.6875 66.0042 54.6875 61.9788C54.6875 43.8889 69.4088 29.1663 87.5 29.1663C105.591 29.1663 120.312 43.8889 120.312 61.9788C120.312 71.8308 111.766 86.3118 99.0423 92.1811Z" fill="#330099"/>
</svg>
