<svg width="175" height="175" viewBox="0 0 175 175" fill="none" xmlns="http://www.w3.org/2000/svg">
<path d="M175 87.5C175 116.329 161.057 141.9 139.55 157.843C130.546 164.514 120.218 169.5 109.032 172.329C102.143 174.075 94.932 175 87.5 175C80.068 175 72.8537 174.075 65.9644 172.329C54.7788 169.5 44.45 164.514 35.4464 157.839C13.9392 141.896 0 116.325 0 87.5C0 39.175 39.175 0 87.5 0C135.825 0 175 39.175 175 87.5Z" fill="#FFDA45"/>
<path d="M139.639 136.768C139.229 134.014 138.686 131.179 138.014 128.279C137.421 125.732 136.732 123.136 135.95 120.5C133.893 113.579 131.183 106.386 127.897 99.1146C126.458 95.9358 124.908 92.7431 123.254 89.5538C121.797 86.7432 120.261 83.9289 118.643 81.1323C117.029 78.3323 115.365 75.5965 113.654 72.9288C111.722 69.9039 109.732 66.9682 107.697 64.1323C103.047 57.6502 98.1719 51.7039 93.2038 46.4607C91.3147 44.4643 89.4109 42.5714 87.5003 40.7893C85.3254 38.7536 83.1396 36.8645 80.9573 35.1322C66.7108 23.8215 53.9574 20.425 45.0395 25.5715C36.1217 30.7213 32.686 43.4642 35.3575 61.4608C35.7645 64.2144 36.3111 67.0503 36.9861 69.9501C37.572 72.4964 38.261 75.0931 39.0468 77.7287C41.1041 84.6501 43.8145 91.8466 47.104 99.1142C48.5399 102.293 50.0896 105.482 51.7432 108.671C53.2003 111.486 54.7397 114.296 56.354 117.096C57.9684 119.896 59.6326 122.632 61.3433 125.3C63.2789 128.328 65.2681 131.264 67.3004 134.1C71.9506 140.582 76.8253 146.525 81.7933 151.767C83.6828 153.764 85.5896 155.66 87.5003 157.442C89.6751 159.478 91.8609 161.364 94.0395 163.096C99.2789 167.257 104.315 170.346 109.032 172.328C120.218 169.499 130.547 164.514 139.55 157.842C140.807 152.05 140.853 144.954 139.639 136.768ZM131.618 156.543C130.578 161.036 128.668 164.114 125.936 165.689C123.207 167.268 119.586 167.382 115.175 166.039C110.396 164.579 104.818 161.386 99.0393 156.797C97.0966 155.254 95.15 153.575 93.2035 151.771C91.2963 150 89.3891 148.107 87.4965 146.103C84.2464 142.664 81.0321 138.9 77.8965 134.861C75.8037 132.164 73.743 129.347 71.7322 126.421C68.8142 122.182 65.9965 117.718 63.3178 113.075C60.6357 108.432 58.1786 103.761 55.9678 99.1142C54.4393 95.9106 53.0284 92.7178 51.7429 89.5572C49.8107 84.8216 48.1571 80.1537 46.8036 75.6215C46.0178 72.9787 45.3287 70.3858 44.7535 67.8466C44.1604 65.2609 43.6785 62.7323 43.3141 60.2789C42.2286 52.9826 42.2536 46.5541 43.3784 41.6862C44.4178 37.1933 46.3319 34.1147 49.0604 32.5397C50.5353 31.6896 52.2675 31.261 54.2424 31.261C55.9282 31.261 57.7923 31.5717 59.8209 32.1931C64.5996 33.6502 70.178 36.8467 75.9564 41.4326C77.8992 42.9754 79.8492 44.654 81.7923 46.4648C83.7029 48.2326 85.6067 50.1255 87.4958 52.1257C90.7494 55.5648 93.9637 59.3294 97.1031 63.3722C99.1959 66.0686 101.257 68.8864 103.267 71.8115C106.182 76.0508 109 80.515 111.678 85.1542C114.36 89.7972 116.817 94.4685 119.028 99.1149C120.556 102.322 121.967 105.515 123.253 108.676C125.185 113.411 126.839 118.076 128.192 122.608C128.978 125.25 129.667 127.843 130.246 130.382C130.835 132.968 131.317 135.497 131.682 137.95C132.768 145.247 132.743 151.675 131.618 156.543Z" fill="#330099"/>
<path d="M146.179 72.7893C143.589 71.768 140.861 70.8215 138.011 69.95C135.511 69.1891 132.918 68.4857 130.243 67.8465C123.221 66.168 115.636 64.918 107.696 64.1322C104.229 63.7856 100.689 63.5324 97.1034 63.3714C93.9391 63.2251 90.732 63.1499 87.5 63.1499C84.268 63.1499 81.0605 63.2248 77.8928 63.3714C74.3035 63.532 70.7642 63.7894 67.2964 64.1322C59.3571 64.918 51.775 66.168 44.7535 67.8465C42.0786 68.4857 39.4857 69.1895 36.9855 69.95C34.1356 70.8178 31.407 71.768 28.8176 72.7893C11.9 79.4676 2.57849 88.8178 2.57849 99.1141C2.57849 109.41 11.9 118.761 28.8179 125.443C31.4074 126.464 34.1322 127.41 36.9821 128.282C39.482 129.043 42.0748 129.746 44.7501 130.382C51.7716 132.064 59.3571 133.311 67.3001 134.1C70.768 134.443 74.3073 134.696 77.8965 134.861C81.0609 135.007 84.268 135.078 87.5 135.078C90.732 135.078 93.9357 135.007 97.1 134.861C100.689 134.696 104.225 134.443 107.696 134.1C115.636 133.314 123.225 132.064 130.246 130.382C132.921 129.743 135.514 129.043 138.014 128.279C140.861 127.411 143.59 126.464 146.179 125.443C163.1 118.761 172.418 109.411 172.418 99.1141C172.418 88.8178 163.1 79.4676 146.179 72.7893ZM159.293 108.607C155.643 112.018 150.086 115.25 143.225 117.96C140.914 118.871 138.485 119.721 135.95 120.5C133.46 121.268 130.871 121.971 128.193 122.607C123.589 123.703 118.721 124.603 113.653 125.3C110.275 125.768 106.807 126.143 103.267 126.418C98.1353 126.829 92.8604 127.036 87.4996 127.036C82.1389 127.036 76.8639 126.829 71.7319 126.422C68.1926 126.143 64.7213 125.768 61.3426 125.3C56.2748 124.604 51.4069 123.704 46.8032 122.607C44.1246 121.971 41.5355 121.268 39.0462 120.5C36.5104 119.721 34.0819 118.871 31.771 117.961C24.9105 115.25 19.3532 112.018 15.7032 108.607C12.3317 105.461 10.621 102.268 10.621 99.1144C10.621 95.961 12.3317 92.768 15.7032 89.6217C19.3532 86.2109 24.9101 82.9789 31.771 80.2681C34.0816 79.3576 36.5104 78.5075 39.0462 77.7289C41.5355 76.9609 44.1246 76.2575 46.8032 75.6217C51.4069 74.5252 56.2748 73.6253 61.3426 72.9287C64.7213 72.4608 68.1926 72.0858 71.7319 71.8073C76.8639 71.4002 82.1389 71.1931 87.4996 71.1931C92.8604 71.1931 98.1353 71.4002 103.267 71.811C106.807 72.0862 110.275 72.4611 113.653 72.9291C118.721 73.6256 123.589 74.5256 128.193 75.6221C130.871 76.2578 133.46 76.9612 135.95 77.7292C138.485 78.5079 140.914 79.3579 143.225 80.2685C150.085 82.9792 155.643 86.2113 159.293 89.6221C162.664 92.7687 164.375 95.9614 164.375 99.1148C164.375 102.268 162.664 105.461 159.293 108.607Z" fill="#330099"/>
<path d="M129.957 25.5715C121.039 20.425 108.286 23.8215 94.0393 35.1322C91.8607 36.8645 89.6749 38.7536 87.5 40.7893C85.5894 42.5714 83.6821 44.4677 81.793 46.4642C76.825 51.707 71.9503 57.6498 67.2967 64.132C65.2648 66.9675 63.2752 69.9036 61.3433 72.9285C59.6326 75.5962 57.9684 78.3319 56.3541 81.1319C54.7398 83.9319 53.2007 86.7425 51.7433 89.5569C50.0897 92.7462 48.5396 95.9389 47.1041 99.1139C43.8146 106.385 41.1042 113.578 39.0469 120.499C38.2611 123.139 37.572 125.735 36.9824 128.281C36.3111 131.182 35.7646 134.014 35.3575 136.767C34.1431 144.95 34.1896 152.046 35.4467 157.839C44.4504 164.514 54.7788 169.499 65.9648 172.328C70.6826 170.346 75.7183 167.257 80.9577 163.096C83.1397 161.364 85.3255 159.475 87.5007 157.442C89.4113 155.66 91.3151 153.767 93.2043 151.771C98.1685 146.528 103.047 140.581 107.697 134.099C109.729 131.263 111.719 128.328 113.654 125.299C115.365 122.632 117.029 119.896 118.644 117.096C120.261 114.299 121.797 111.489 123.254 108.674C124.908 105.485 126.458 102.292 127.897 99.1135C131.183 91.8456 133.894 84.6494 135.951 77.728C136.733 75.0924 137.422 72.4958 138.011 69.9494C138.687 67.0492 139.229 64.2137 139.64 61.4602C142.311 43.4642 138.875 30.7213 129.957 25.5715ZM128.193 75.6215C126.839 80.1537 125.186 84.8179 123.254 89.5535C121.968 92.7141 120.557 95.9071 119.029 99.1142C116.818 103.761 114.361 108.432 111.679 113.075C109 117.714 106.182 122.178 103.268 126.418C101.254 129.346 99.1932 132.164 97.1004 134.86C93.9648 138.9 90.7505 142.664 87.4969 146.103C85.6078 148.103 83.704 149.996 81.7934 151.767C79.8506 153.574 77.9006 155.253 75.9575 156.796C70.1791 161.385 64.6003 164.578 59.822 166.039C55.4114 167.382 51.7898 167.267 49.0612 165.689C46.3326 164.114 44.4182 161.035 43.3792 156.542C42.2543 151.674 42.229 145.246 43.3149 137.95C43.6793 135.496 44.1612 132.967 44.7505 130.382C45.3291 127.843 46.0182 125.25 46.804 122.607C48.1575 118.075 49.8111 113.407 51.7433 108.671C53.0291 105.511 54.4397 102.318 55.9682 99.1142C58.179 94.4678 60.6361 89.7965 63.3182 85.1535C65.9969 80.5106 68.8147 76.0463 71.7326 71.807C73.7434 68.8819 75.8003 66.0642 77.8931 63.3715C81.0325 59.3287 84.2468 55.5645 87.4966 52.125C89.3895 50.1214 91.2967 48.2285 93.2036 46.4607C95.1501 44.6537 97.0963 42.9751 99.0394 41.4322C104.818 36.8467 110.397 33.6502 115.175 32.1928C117.204 31.5714 119.068 31.2607 120.753 31.2607C122.728 31.2607 124.464 31.6893 125.935 32.5394C128.667 34.1144 130.578 37.1929 131.617 41.6858C132.742 46.5537 132.768 52.9822 131.682 60.2786C131.317 62.732 130.835 65.2606 130.242 67.8463C129.668 70.3855 128.978 72.9784 128.193 75.6215Z" fill="#330099"/>
<path d="M87.5 115.075C96.3147 115.075 103.461 107.929 103.461 99.1141C103.461 90.2994 96.3147 83.1536 87.5 83.1536C78.6852 83.1536 71.5394 90.2994 71.5394 99.1141C71.5394 107.929 78.6852 115.075 87.5 115.075Z" fill="#330099"/>
</svg>
