<svg width="175" height="175" viewBox="0 0 175 175" fill="none" xmlns="http://www.w3.org/2000/svg">
<path d="M87.5 175C135.825 175 175 135.825 175 87.5C175 39.1751 135.825 0 87.5 0C39.1751 0 0 39.1751 0 87.5C0 135.825 39.1751 175 87.5 175Z" fill="#FFDA45"/>
<path d="M70.9979 112.383H104.016V127.012H70.9979V112.383Z" fill="#2F4859"/>
<path d="M131.66 46.1013H43.3398C41.4673 46.1013 39.9492 47.6194 39.9492 49.4919V112.136C39.9492 114.009 41.4673 115.527 43.3398 115.527H131.66C133.533 115.527 135.051 114.009 135.051 112.136V49.4919C135.051 47.6194 133.533 46.1013 131.66 46.1013Z" fill="#3A556A"/>
<path d="M45.7734 51.9257H129.227V103.865H45.7734V51.9257Z" fill="#330099"/>
<path d="M110.25 125.111H64.7501C64.2757 125.152 63.8337 125.369 63.5116 125.719C63.1895 126.07 63.0107 126.529 63.0107 127.005C63.0107 127.481 63.1895 127.94 63.5116 128.29C63.8337 128.641 64.2757 128.858 64.7501 128.898H110.25C110.725 128.858 111.167 128.641 111.489 128.29C111.811 127.94 111.989 127.481 111.989 127.005C111.989 126.529 111.811 126.07 111.489 125.719C111.167 125.369 110.725 125.152 110.25 125.111Z" fill="#3A556A"/>
<path d="M87.4998 106.969C86.959 106.969 86.4303 107.129 85.9806 107.43C85.531 107.73 85.1805 108.157 84.9735 108.657C84.7666 109.156 84.7124 109.706 84.8179 110.237C84.9234 110.767 85.1839 111.254 85.5663 111.637C85.9487 112.019 86.4359 112.28 86.9663 112.385C87.4967 112.491 88.0465 112.436 88.5462 112.229C89.0458 112.023 89.4729 111.672 89.7733 111.222C90.0738 110.773 90.2341 110.244 90.2341 109.703C90.2341 108.978 89.9461 108.283 89.4333 107.77C88.9205 107.257 88.225 106.969 87.4998 106.969Z" fill="#2F4859"/>
<path d="M64.1346 64.5863H63.328V59.432C63.0926 59.6446 62.8361 59.8324 62.5624 59.9926C62.2896 60.1575 62.001 60.2949 61.701 60.4027V59.6234C62.1332 59.4284 62.534 59.1704 62.8905 58.8578C63.1807 58.6101 63.4258 58.3141 63.6151 57.9828H64.1346V64.5863Z" fill="#E1E6E9"/>
<path d="M67.7032 61.3322C67.6866 60.6997 67.7649 60.0684 67.9356 59.4591C68.0647 59.0348 68.3111 58.6556 68.6465 58.3654C68.9906 58.1014 69.4162 57.9659 69.8496 57.9826C70.1713 57.9776 70.4896 58.0478 70.7793 58.1876C71.0418 58.3405 71.2661 58.5509 71.4356 58.8029C71.6203 59.1089 71.7585 59.4406 71.8457 59.7873C71.951 60.2952 71.9969 60.8136 71.9825 61.3322C72.0059 61.965 71.9274 62.5974 71.75 63.2052C71.6375 63.6121 71.4095 63.9777 71.0938 64.258C70.7574 64.528 70.3355 64.6687 69.9043 64.6544C69.6176 64.6662 69.3322 64.6105 69.0709 64.4918C68.8097 64.373 68.58 64.1946 68.4004 63.9709C67.8943 63.1874 67.6502 62.2634 67.7032 61.3322ZM68.5371 61.3322C68.4687 62.0721 68.596 62.8171 68.9063 63.4923C69.0056 63.6537 69.1443 63.7872 69.3093 63.8805C69.4742 63.9737 69.6601 64.0236 69.8496 64.0255C70.0371 64.0226 70.2207 63.9722 70.3833 63.8789C70.5459 63.7856 70.6822 63.6526 70.7793 63.4923C71.1007 62.8204 71.233 62.0736 71.1621 61.3322C71.2355 60.5951 71.1029 59.852 70.7793 59.1857C70.6837 59.02 70.5462 58.8823 70.3807 58.7863C70.2151 58.6904 70.0273 58.6395 69.836 58.6388C69.6594 58.6365 69.4851 58.6792 69.3296 58.7629C69.1741 58.8467 69.0426 58.9686 68.9473 59.1173C68.6113 59.8045 68.4695 60.5703 68.5371 61.3322Z" fill="#E1E6E9"/>
<path d="M77.9294 64.5859H77.1228V59.4316C76.8874 59.6442 76.6309 59.832 76.3572 59.9922C76.0875 60.1542 75.8038 60.2914 75.5095 60.4023V59.623C75.9374 59.4279 76.3337 59.1698 76.6853 58.8574C76.9755 58.6097 77.2206 58.3137 77.4099 57.9824H77.9294V64.5859Z" fill="#E1E6E9"/>
<path d="M84.9023 64.5859H84.0957V59.4316C83.863 59.6475 83.6061 59.8356 83.3301 59.9922C83.0619 60.1568 82.7779 60.2942 82.4824 60.4023V59.623C82.9145 59.428 83.3154 59.17 83.6719 58.8574C83.9624 58.6136 84.2037 58.3167 84.3828 57.9824H84.9023V64.5859Z" fill="#E1E6E9"/>
<path d="M88.4706 61.3322C88.4509 60.6986 88.534 60.0661 88.7167 59.4591C88.8458 59.0348 89.0923 58.6556 89.4277 58.3654C89.7659 58.1002 90.1877 57.9645 90.6171 57.9826C90.9391 57.9744 91.2582 58.0448 91.5468 58.1876C91.816 58.3363 92.0457 58.5473 92.2167 58.8029C92.3967 59.1097 92.5303 59.4414 92.6132 59.7872C92.7308 60.2934 92.7813 60.8128 92.7636 61.3322C92.7802 61.9646 92.7018 62.596 92.5312 63.2052C92.4056 63.6312 92.1586 64.0113 91.8203 64.299C91.4145 64.6107 90.9046 64.7547 90.3958 64.7012C89.8869 64.6478 89.418 64.401 89.0859 64.0119C88.5935 63.2098 88.3774 62.2686 88.4706 61.3322ZM89.3046 61.3322C89.2337 62.0736 89.3661 62.8204 89.6874 63.4923C89.7846 63.6526 89.9209 63.7856 90.0835 63.8789C90.2461 63.9721 90.4297 64.0226 90.6171 64.0255C90.8061 64.0212 90.9911 63.9702 91.1556 63.8772C91.3202 63.7842 91.4593 63.652 91.5605 63.4923C91.8773 62.8189 92.0095 62.0734 91.9433 61.3322C92.0245 60.599 91.9064 59.8574 91.6015 59.1857C91.5038 59.0218 91.3659 58.8855 91.2008 58.7898C91.0357 58.6941 90.8489 58.6421 90.6581 58.6388C90.4816 58.6365 90.3073 58.6792 90.1518 58.7629C89.9963 58.8466 89.8647 58.9686 89.7695 59.1173C89.4099 59.7974 89.2488 60.5649 89.3046 61.3322Z" fill="#E1E6E9"/>
<path d="M98.7656 64.5859H97.9453V59.4316C97.7152 59.6505 97.4579 59.8389 97.1797 59.9922C96.9115 60.1568 96.6275 60.2942 96.332 60.4023V59.623C96.7642 59.428 97.165 59.17 97.5215 58.8574C97.812 58.6136 98.0533 58.3167 98.2324 57.9824H98.7656V64.5859Z" fill="#E1E6E9"/>
<path d="M102.334 61.3321C102.301 60.7007 102.371 60.0684 102.539 59.459C102.668 59.0347 102.914 58.6555 103.25 58.3652C103.592 58.098 104.019 57.9622 104.453 57.9824C104.77 57.9759 105.085 58.0463 105.369 58.1875C105.638 58.3362 105.868 58.5472 106.039 58.8027C106.218 59.1116 106.356 59.4425 106.449 59.7871C106.554 60.2951 106.6 60.8135 106.586 61.3321C106.609 61.9648 106.531 62.5972 106.353 63.2051C106.228 63.6311 105.981 64.0112 105.642 64.2988C105.306 64.5689 104.884 64.7096 104.453 64.6953C104.166 64.7071 103.881 64.6514 103.62 64.5327C103.358 64.4139 103.129 64.2355 102.949 64.0117C102.458 63.2093 102.242 62.2684 102.334 61.3321ZM103.154 61.3321C103.088 62.0733 103.22 62.8188 103.537 63.4922C103.634 63.6535 103.772 63.787 103.936 63.8796C104.1 63.9723 104.285 64.021 104.473 64.021C104.662 64.021 104.847 63.9723 105.011 63.8796C105.175 63.787 105.313 63.6535 105.41 63.4922C105.727 62.8188 105.859 62.0733 105.793 61.3321C105.861 60.5951 105.729 59.8534 105.41 59.1856C105.312 59.0217 105.174 58.8854 105.009 58.7897C104.844 58.694 104.657 58.642 104.467 58.6387C104.29 58.6364 104.116 58.6791 103.96 58.7628C103.805 58.8465 103.673 58.9685 103.578 59.1172C103.232 59.8014 103.086 60.5687 103.154 61.3321Z" fill="#E1E6E9"/>
<path d="M112.615 64.5859H111.808V59.4316C111.573 59.6442 111.317 59.832 111.043 59.9922C110.77 60.1571 110.482 60.2945 110.182 60.4023V59.623C110.614 59.428 111.014 59.17 111.371 58.8574C111.661 58.6097 111.906 58.3137 112.096 57.9824H112.615V64.5859Z" fill="#E1E6E9"/>
<path d="M64.1346 75.6055H63.328V70.4648C63.092 70.6726 62.8355 70.8559 62.5624 71.0117C62.2896 71.1805 62.0012 71.3224 61.701 71.4355V70.6562C62.131 70.4515 62.5311 70.1893 62.8905 69.877C63.1838 69.6324 63.4295 69.3357 63.6151 69.002H64.1346V75.6055Z" fill="#E1E6E9"/>
<path d="M67.7988 72.3654C67.7824 71.7284 67.8607 71.0926 68.0313 70.4787C68.1688 70.0549 68.4193 69.6767 68.7559 69.3849C69.0941 69.1197 69.5159 68.984 69.9453 69.0021C70.2689 68.9934 70.5892 69.0688 70.875 69.2208C71.1433 69.3657 71.3694 69.5777 71.5313 69.8361C71.724 70.133 71.8629 70.4616 71.9414 70.8068C72.0528 71.3186 72.1033 71.8417 72.0918 72.3654C72.1118 72.9944 72.0286 73.6225 71.8457 74.2247C71.7218 74.6553 71.4747 75.0403 71.1348 75.3322C70.7262 75.6391 70.216 75.7788 69.7081 75.7229C69.2001 75.667 68.7325 75.4197 68.4004 75.0314C67.9212 74.2294 67.7105 73.2954 67.7988 72.3654ZM68.6328 72.3654C68.5636 73.1009 68.6909 73.8417 69.002 74.5119C69.0997 74.6758 69.2376 74.812 69.4027 74.9077C69.5678 75.0034 69.7545 75.0554 69.9453 75.0587C70.1343 75.0557 70.3193 75.0037 70.4823 74.9079C70.6452 74.812 70.7805 74.6756 70.875 74.5119C71.1986 73.8455 71.3311 73.1025 71.2578 72.3654C71.3287 71.6239 71.1964 70.8771 70.875 70.2052C70.7766 70.043 70.6382 69.9087 70.473 69.8153C70.3078 69.722 70.1214 69.6726 69.9317 69.672C69.7561 69.6669 69.5822 69.707 69.4266 69.7884C69.271 69.8698 69.1389 69.9898 69.043 70.1369C68.7092 70.8296 68.5675 71.5992 68.6328 72.3654Z" fill="#E1E6E9"/>
<path d="M74.8262 72.3654C74.8029 71.7281 74.8814 71.0912 75.0586 70.4787C75.191 70.0559 75.4369 69.6775 75.7695 69.3849C76.1078 69.1197 76.5296 68.984 76.959 69.0021C77.2828 68.9915 77.6036 69.067 77.8887 69.2208C78.1638 69.3611 78.3955 69.5738 78.5586 69.8361C78.7409 70.1368 78.8747 70.4644 78.9551 70.8068C79.0734 71.3175 79.1239 71.8415 79.1055 72.3654C79.1221 72.9933 79.0437 73.6202 78.873 74.2247C78.7442 74.6531 78.4979 75.0367 78.1621 75.3322C77.8196 75.5994 77.3929 75.7352 76.959 75.715C76.6741 75.7279 76.3902 75.6726 76.131 75.5537C75.8718 75.4348 75.6448 75.2557 75.4687 75.0314C74.9688 74.2369 74.7431 73.3004 74.8262 72.3654ZM75.6465 72.3654C75.5781 73.1023 75.7104 73.844 76.0293 74.5119C76.1238 74.6756 76.2591 74.812 76.422 74.9079C76.585 75.0037 76.77 75.0557 76.959 75.0587C77.15 75.0567 77.3373 75.0053 77.5026 74.9094C77.6679 74.8136 77.8056 74.6766 77.9023 74.5119C78.2213 73.844 78.3535 73.1023 78.2851 72.3654C78.3598 71.6266 78.2372 70.8811 77.9297 70.2052C77.8285 70.0456 77.6894 69.9134 77.5248 69.8204C77.3603 69.7273 77.1753 69.6764 76.9863 69.672C76.8108 69.6669 76.6369 69.707 76.4813 69.7884C76.3257 69.8698 76.1936 69.9898 76.0976 70.1369C75.7403 70.8223 75.5838 71.5949 75.6465 72.3654Z" fill="#E1E6E9"/>
<path d="M81.8398 72.3654C81.8023 71.7303 81.8669 71.0933 82.0312 70.4787C82.1636 70.0559 82.4095 69.6775 82.7421 69.3849C83.0804 69.1197 83.5022 68.984 83.9316 69.0021C84.2554 68.9915 84.5762 69.067 84.8613 69.2208C85.1353 69.3576 85.3633 69.5715 85.5175 69.8361C85.7103 70.133 85.8491 70.4616 85.9277 70.8068C86.0575 71.3164 86.1263 71.8396 86.1327 72.3654C86.1494 72.9933 86.071 73.6202 85.9003 74.2247C85.7715 74.6531 85.5252 75.0367 85.1894 75.3322C84.8458 75.5972 84.4198 75.7328 83.9863 75.715C83.7011 75.7302 83.4165 75.6759 83.1569 75.5569C82.8973 75.4378 82.6705 75.2575 82.496 75.0314C81.9913 74.2385 81.7608 73.3019 81.8398 72.3654ZM82.6738 72.3654C82.6004 73.1025 82.733 73.8455 83.0566 74.5119C83.1511 74.6756 83.2864 74.812 83.4493 74.9079C83.6122 75.0037 83.7972 75.0557 83.9863 75.0587C84.177 75.0554 84.3638 75.0034 84.5289 74.9077C84.694 74.812 84.8319 74.6758 84.9296 74.5119C85.2407 73.8417 85.368 73.1009 85.2988 72.3654C85.3672 71.6254 85.2399 70.8805 84.9296 70.2052C84.8271 70.0437 84.6859 69.9103 84.5188 69.8171C84.3517 69.724 84.1639 69.6741 83.9726 69.672C83.7989 69.6666 83.6268 69.7067 83.4733 69.7882C83.3199 69.8697 83.1903 69.9899 83.0976 70.1369C82.7496 70.8251 82.6027 71.5975 82.6738 72.3654Z" fill="#E1E6E9"/>
<path d="M92.2168 75.6055H91.4102V70.4648C91.1792 70.6789 90.9219 70.8627 90.6445 71.0117C90.3764 71.1802 90.0925 71.3221 89.7969 71.4355V70.6562C90.2268 70.4515 90.6269 70.1893 90.9863 69.877C91.2799 69.6362 91.5217 69.3386 91.6973 69.002H92.2168V75.6055Z" fill="#E1E6E9"/>
<path d="M95.8944 72.3653C95.8779 71.7284 95.9562 71.0925 96.1268 70.4786C96.2592 70.0558 96.5051 69.6775 96.8378 69.3849C97.1813 69.1198 97.6073 68.9842 98.0409 69.002C98.3601 68.9933 98.6761 69.0687 98.9569 69.2208C99.2321 69.361 99.4637 69.5738 99.6268 69.836C99.8083 70.1388 99.9463 70.4656 100.037 70.8067C100.143 71.3192 100.189 71.8422 100.174 72.3653C100.197 72.9936 100.119 73.6216 99.9413 74.2247C99.8125 74.653 99.5662 75.0367 99.2303 75.3321C98.8217 75.639 98.3116 75.7787 97.8036 75.7229C97.2957 75.667 96.8281 75.4197 96.496 75.0313C96.0104 74.2319 95.7991 73.2958 95.8944 72.3653ZM96.7147 72.3653C96.6378 73.0998 96.7606 73.8414 97.0702 74.5118C97.1669 74.6766 97.3046 74.8136 97.4699 74.9094C97.6352 75.0052 97.8225 75.0567 98.0135 75.0587C98.2026 75.0556 98.3875 75.0037 98.5505 74.9078C98.7134 74.812 98.8487 74.6755 98.9432 74.5118C99.2622 73.844 99.3944 73.1023 99.326 72.3653C99.3922 71.6241 99.2601 70.8785 98.9432 70.2052C98.8401 70.0578 98.7031 69.9373 98.5436 69.8541C98.3842 69.7708 98.2071 69.7271 98.0272 69.7266C97.8517 69.7215 97.6778 69.7616 97.5222 69.843C97.3666 69.9244 97.2345 70.0444 97.1385 70.1915C96.8083 70.8661 96.6621 71.616 96.7147 72.3653Z" fill="#E1E6E9"/>
<path d="M102.908 72.3654C102.888 71.7273 102.971 71.0903 103.154 70.4787C103.286 70.0559 103.532 69.6775 103.865 69.3849C104.203 69.1197 104.625 68.984 105.054 69.0021C105.378 68.9915 105.699 69.067 105.984 69.2208C106.258 69.3576 106.486 69.5715 106.64 69.8361C106.833 70.133 106.972 70.4616 107.051 70.8068C107.169 71.3175 107.219 71.8415 107.201 72.3654C107.218 72.9933 107.139 73.6202 106.969 74.2247C106.84 74.6531 106.593 75.0367 106.258 75.3322C105.914 75.5972 105.488 75.7328 105.054 75.715C104.769 75.7302 104.485 75.6759 104.225 75.5569C103.966 75.4378 103.739 75.2575 103.564 75.0314C103.06 74.2385 102.829 73.3019 102.908 72.3654ZM103.742 72.3654C103.669 73.1025 103.801 73.8455 104.125 74.5119C104.219 74.6756 104.355 74.812 104.518 74.9079C104.68 75.0037 104.865 75.0557 105.054 75.0587C105.245 75.0554 105.432 75.0034 105.597 74.9077C105.762 74.812 105.9 74.6758 105.998 74.5119C106.309 73.8417 106.436 73.1009 106.367 72.3654C106.435 71.6254 106.308 70.8805 105.998 70.2052C105.897 70.0456 105.758 69.9134 105.593 69.8204C105.428 69.7273 105.243 69.6764 105.054 69.672C104.879 69.6656 104.704 69.7051 104.549 69.7866C104.393 69.8681 104.261 69.9888 104.166 70.1369C103.818 70.8251 103.671 71.5975 103.742 72.3654Z" fill="#E1E6E9"/>
<path d="M113.299 75.6055H112.479V70.4648C112.248 70.6789 111.99 70.8627 111.713 71.0117C111.445 71.1802 111.161 71.3221 110.865 71.4355V70.6562C111.295 70.4515 111.695 70.1893 112.055 69.877C112.348 69.6362 112.59 69.3386 112.766 69.002H113.299V75.6055Z" fill="#E1E6E9"/>
<path d="M64.1346 86.6388H63.328V81.4845C63.0926 81.697 62.8361 81.8849 62.5624 82.045C62.2896 82.21 62.001 82.3473 61.701 82.4552V81.6759C62.1332 81.4808 62.534 81.2228 62.8905 80.9103C63.1807 80.6626 63.4258 80.3665 63.6151 80.0353H64.1346V86.6388Z" fill="#E1E6E9"/>
<path d="M67.7029 83.3987C67.6864 82.7662 67.7647 82.1349 67.9354 81.5257C68.0644 81.1013 68.3109 80.7221 68.6463 80.4319C68.9904 80.1679 69.416 80.0325 69.8494 80.0491C70.1711 80.0441 70.4894 80.1143 70.7791 80.2542C71.0474 80.3991 71.2735 80.6111 71.4354 80.8694C71.6223 81.1743 71.7607 81.5064 71.8455 81.8538C71.9507 82.3617 71.9966 82.8802 71.9822 83.3987C72.0057 84.0315 71.9272 84.6639 71.7498 85.2718C71.6257 85.6984 71.3784 86.0789 71.0389 86.3655C70.7025 86.6356 70.2805 86.7762 69.8494 86.762C69.5695 86.7782 69.2895 86.7299 69.0311 86.6209C68.7728 86.5119 68.5429 86.345 68.3592 86.1331C67.8474 85.3179 67.6169 84.3574 67.7029 83.3987ZM68.5369 83.3987C68.4685 84.1387 68.5958 84.8836 68.9061 85.5589C69.0054 85.7202 69.1441 85.8538 69.309 85.947C69.474 86.0402 69.6599 86.0902 69.8494 86.0921C70.0368 86.0891 70.2205 86.0387 70.3831 85.9454C70.5457 85.8522 70.6819 85.7192 70.7791 85.5589C71.2893 84.1639 71.2893 82.6335 70.7791 81.2385C70.6807 81.0763 70.5423 80.9421 70.3771 80.8487C70.2119 80.7553 70.0255 80.706 69.8358 80.7053C69.6592 80.703 69.4849 80.7457 69.3294 80.8294C69.1739 80.9132 69.0423 81.0351 68.9471 81.1839C68.6111 81.871 68.4693 82.6368 68.5369 83.3987Z" fill="#E1E6E9"/>
<path d="M77.9294 86.6388H77.1228V81.4845C76.8874 81.697 76.6309 81.8849 76.3572 82.045C76.0875 82.207 75.8038 82.3443 75.5095 82.4552V81.6759C75.9374 81.4807 76.3337 81.2227 76.6853 80.9103C76.9755 80.6626 77.2206 80.3665 77.4099 80.0353H77.9294V86.6388Z" fill="#E1E6E9"/>
<path d="M81.5526 83.3984C81.5361 82.766 81.6144 82.1346 81.785 81.5254C81.9186 81.0998 82.1698 80.7206 82.5096 80.4317C82.8479 80.1665 83.2697 80.0307 83.6991 80.0488C84.0209 80.0423 84.3396 80.1126 84.6288 80.2539C84.897 80.3988 85.1231 80.6108 85.285 80.8692C85.4778 81.171 85.6166 81.5041 85.6952 81.8535C85.806 82.3608 85.8565 82.8793 85.8456 83.3984C85.8653 84.032 85.7822 84.6646 85.5995 85.2715C85.4754 85.6981 85.2281 86.0786 84.8885 86.3652C84.5522 86.6353 84.1302 86.776 83.6991 86.7617C83.4142 86.7747 83.1304 86.7194 82.8712 86.6005C82.612 86.4816 82.3849 86.3025 82.2089 86.0781C81.7022 85.281 81.4716 84.3395 81.5526 83.3984ZM82.3866 83.3984C82.3181 84.1384 82.4454 84.8834 82.7557 85.5586C82.857 85.7183 82.996 85.8504 83.1606 85.9435C83.3251 86.0365 83.5101 86.0874 83.6991 86.0918C83.8865 86.0889 84.0701 86.0384 84.2327 85.9452C84.3953 85.8519 84.5316 85.7189 84.6288 85.5586C85.139 84.1637 85.139 82.6332 84.6288 81.2383C84.5304 81.076 84.392 80.9418 84.2268 80.8484C84.0616 80.7551 83.8752 80.7057 83.6854 80.7051C83.5088 80.7028 83.3346 80.7455 83.1791 80.8292C83.0236 80.9129 82.892 81.0349 82.7968 81.1836C82.4608 81.8707 82.319 82.6366 82.3866 83.3984Z" fill="#E1E6E9"/>
<path d="M91.8339 86.6389H91.0272V81.4846C90.7853 81.6974 90.5191 81.881 90.2343 82.0315C89.9646 82.1935 89.6809 82.3307 89.3866 82.4417V81.6624C89.8163 81.4704 90.2131 81.212 90.5624 80.8967C90.8564 80.6528 91.1021 80.356 91.287 80.0217H91.8065L91.8339 86.6389Z" fill="#E1E6E9"/>
<path d="M95.4022 83.3985C95.3987 82.7573 95.5003 82.12 95.703 81.5117C95.8271 81.0851 96.0744 80.7046 96.4139 80.418C96.7522 80.1528 97.174 80.0171 97.6034 80.0352C97.9252 80.0286 98.2439 80.0989 98.5331 80.2403C98.8013 80.3852 99.0274 80.5971 99.1893 80.8555C99.3821 81.1574 99.5208 81.4904 99.5995 81.8399C99.693 82.3538 99.7252 82.877 99.6952 83.3985C99.7149 84.032 99.6318 84.6646 99.4491 85.2715C99.325 85.6981 99.0777 86.0786 98.7382 86.3652C98.4018 86.6353 97.9798 86.776 97.5487 86.7617C97.2638 86.7747 96.98 86.7194 96.7208 86.6005C96.4616 86.4816 96.2345 86.3025 96.0585 86.0781C95.5518 85.281 95.3212 84.3395 95.4022 83.3985ZM96.2362 83.3985C96.1653 84.1399 96.2976 84.8867 96.619 85.5586C96.7146 85.7202 96.8505 85.854 97.0136 85.947C97.1766 86.04 97.361 86.0889 97.5487 86.0889C97.7364 86.0889 97.9208 86.04 98.0839 85.947C98.2469 85.854 98.3829 85.7202 98.4784 85.5586C98.9886 84.1637 98.9886 82.6332 98.4784 81.2383C98.38 81.076 98.2416 80.9418 98.0764 80.8484C97.9112 80.7551 97.7248 80.7057 97.535 80.7051C97.3584 80.7028 97.1842 80.7455 97.0287 80.8292C96.8732 80.9129 96.7416 81.0349 96.6464 81.1836C96.3104 81.8707 96.1686 82.6366 96.2362 83.3985Z" fill="#E1E6E9"/>
<path d="M105.684 86.6388H104.877V81.4845C104.644 81.7003 104.387 81.8884 104.111 82.045C103.842 82.207 103.558 82.3443 103.264 82.4552V81.6759C103.696 81.4808 104.097 81.2228 104.453 80.9103C104.74 80.6626 104.98 80.3664 105.164 80.0353H105.684V86.6388Z" fill="#E1E6E9"/>
<path d="M112.615 86.6388H111.808V81.4845C111.573 81.697 111.317 81.8849 111.043 82.045C110.77 82.21 110.482 82.3473 110.182 82.4552V81.6759C110.614 81.4808 111.014 81.2228 111.371 80.9103C111.661 80.6626 111.906 80.3665 112.096 80.0353H112.615V86.6388Z" fill="#E1E6E9"/>
<path d="M64.1346 97.6583H63.328V92.5177C63.092 92.7255 62.8355 92.9087 62.5624 93.0646C62.2896 93.2334 62.0012 93.3753 61.701 93.4884V92.7091C62.131 92.5043 62.5311 92.2422 62.8905 91.9298C63.1838 91.6852 63.4295 91.3886 63.6151 91.0548H64.1346V97.6583Z" fill="#E1E6E9"/>
<path d="M67.7988 94.4179C67.7824 93.7809 67.8607 93.145 68.0313 92.5311C68.1688 92.1074 68.4193 91.7292 68.7559 91.4374C69.0941 91.1722 69.5159 91.0365 69.9453 91.0546C70.2689 91.0459 70.5892 91.1213 70.875 91.2733C71.1433 91.4182 71.3694 91.6302 71.5313 91.8886C71.724 92.1855 71.8629 92.5141 71.9414 92.8593C72.0528 93.3711 72.1033 93.8942 72.0918 94.4179C72.1118 95.0469 72.0286 95.675 71.8457 96.2772C71.7218 96.7078 71.4747 97.0928 71.1348 97.3847C70.7262 97.6915 70.216 97.8313 69.7081 97.7754C69.2001 97.7195 68.7325 97.4722 68.4004 97.0839C67.9212 96.2819 67.7105 95.3479 67.7988 94.4179ZM68.6328 94.4179C68.5636 95.1534 68.6909 95.8942 69.002 96.5643C69.0997 96.7282 69.2376 96.8645 69.4027 96.9602C69.5678 97.0559 69.7545 97.1079 69.9453 97.1112C70.1343 97.1082 70.3193 97.0562 70.4823 96.9604C70.6452 96.8645 70.7805 96.7281 70.875 96.5643C71.1986 95.898 71.3311 95.155 71.2578 94.4179C71.3287 93.6764 71.1964 92.9296 70.875 92.2577C70.7766 92.0955 70.6382 91.9612 70.473 91.8678C70.3078 91.7745 70.1214 91.7251 69.9317 91.7245C69.7561 91.7194 69.5822 91.7595 69.4266 91.8409C69.271 91.9223 69.1389 92.0423 69.043 92.1893C68.7092 92.882 68.5675 93.6517 68.6328 94.4179Z" fill="#E1E6E9"/>
<path d="M74.826 94.4179C74.8027 93.7806 74.8812 93.1437 75.0584 92.5311C75.1908 92.1084 75.4367 91.73 75.7693 91.4374C76.1076 91.1722 76.5294 91.0365 76.9588 91.0546C77.2826 91.044 77.6034 91.1195 77.8885 91.2733C78.1636 91.4136 78.3953 91.6263 78.5584 91.8886C78.7407 92.1893 78.8745 92.5169 78.9549 92.8593C79.0732 93.37 79.1237 93.894 79.1053 94.4179C79.1219 95.0458 79.0436 95.6727 78.8728 96.2772C78.744 96.7056 78.4977 97.0892 78.1619 97.3847C77.8195 97.6519 77.3927 97.7877 76.9588 97.7675C76.6727 97.7788 76.3881 97.7214 76.1289 97.6001C75.8696 97.4788 75.6431 97.2971 75.4685 97.0702C74.9715 96.2795 74.746 95.3483 74.826 94.4179ZM75.6463 94.4179C75.5779 95.1548 75.7102 95.8965 76.0291 96.5643C76.1236 96.7281 76.2589 96.8645 76.4218 96.9604C76.5848 97.0562 76.7698 97.1082 76.9588 97.1112C77.1498 97.1092 77.3371 97.0578 77.5024 96.9619C77.6677 96.8661 77.8054 96.7291 77.9021 96.5643C78.2211 95.8965 78.3533 95.1548 78.285 94.4179C78.3596 93.679 78.237 92.9336 77.9295 92.2577C77.8283 92.0981 77.6892 91.9659 77.5246 91.8728C77.3601 91.7798 77.1751 91.7289 76.9861 91.7245C76.8106 91.7194 76.6367 91.7595 76.4811 91.8409C76.3255 91.9223 76.1934 92.0423 76.0975 92.1893C75.7401 92.8748 75.5837 93.6473 75.6463 94.4179Z" fill="#E1E6E9"/>
<path d="M85.2031 97.6583H84.3965V92.5177C84.1605 92.7255 83.904 92.9087 83.6309 93.0646C83.3581 93.2334 83.0697 93.3753 82.7695 93.4884V92.7091C83.2013 92.5076 83.6019 92.2452 83.959 91.9298C84.2523 91.6852 84.498 91.3886 84.6836 91.0548H85.2031V97.6583Z" fill="#E1E6E9"/>
<path d="M88.8671 94.4179C88.8473 93.7798 88.9304 93.1428 89.1131 92.5311C89.2402 92.1058 89.487 91.7261 89.8241 91.4374C90.1623 91.1722 90.5841 91.0365 91.0135 91.0546C91.3371 91.0459 91.6574 91.1213 91.9432 91.2733C92.2115 91.4182 92.4376 91.6302 92.5995 91.8886C92.7923 92.1855 92.9311 92.5141 93.0096 92.8593C93.121 93.3711 93.1715 93.8942 93.16 94.4179C93.1977 95.0439 93.1331 95.672 92.9686 96.2772C92.8447 96.7078 92.5976 97.0928 92.2577 97.3847C91.9194 97.6498 91.4976 97.7856 91.0682 97.7675C90.7829 97.7839 90.4979 97.7302 90.2381 97.611C89.9783 97.4918 89.7517 97.3109 89.578 97.0839C89.0541 96.2977 88.8042 95.3606 88.8671 94.4179ZM89.701 94.4179C89.6318 95.1534 89.7591 95.8942 90.0702 96.5643C90.1679 96.7282 90.3058 96.8645 90.4709 96.9602C90.636 97.0559 90.8228 97.1079 91.0135 97.1112C91.2025 97.1082 91.3875 97.0562 91.5505 96.9604C91.7134 96.8645 91.8487 96.7281 91.9432 96.5643C92.2668 95.898 92.3994 95.155 92.326 94.4179C92.3969 93.6764 92.2646 92.9296 91.9432 92.2577C91.8448 92.0955 91.7064 91.9612 91.5412 91.8678C91.376 91.7745 91.1896 91.7251 90.9999 91.7245C90.8243 91.7194 90.6504 91.7595 90.4948 91.8409C90.3392 91.9223 90.2071 92.0423 90.1112 92.1893C89.7774 92.882 89.6357 93.6517 89.701 94.4179Z" fill="#E1E6E9"/>
<path d="M95.8944 94.4178C95.8779 93.7809 95.9562 93.145 96.1268 92.5311C96.2592 92.1083 96.5051 91.73 96.8378 91.4373C97.1813 91.1723 97.6073 91.0367 98.0409 91.0545C98.3601 91.0457 98.6761 91.1212 98.9569 91.2733C99.2321 91.4135 99.4637 91.6262 99.6268 91.8885C99.8083 92.1913 99.9463 92.5181 100.037 92.8592C100.143 93.3717 100.189 93.8947 100.174 94.4178C100.197 95.0461 100.119 95.674 99.9413 96.2772C99.8125 96.7055 99.5662 97.0892 99.2303 97.3846C98.8217 97.6915 98.3116 97.8312 97.8036 97.7753C97.2957 97.7195 96.8281 97.4722 96.496 97.0838C96.0104 96.2844 95.7991 95.3483 95.8944 94.4178ZM96.7147 94.4178C96.6378 95.1523 96.7606 95.8938 97.0702 96.5643C97.1669 96.7291 97.3046 96.8661 97.4699 96.9619C97.6352 97.0577 97.8225 97.1091 98.0135 97.1112C98.2026 97.1081 98.3875 97.0562 98.5505 96.9603C98.7134 96.8645 98.8487 96.728 98.9432 96.5643C99.2622 95.8964 99.3944 95.1547 99.326 94.4178C99.3922 93.6766 99.2601 92.931 98.9432 92.2577C98.8439 92.0963 98.7052 91.9628 98.5402 91.8695C98.3753 91.7763 98.1894 91.7264 97.9999 91.7245C97.8243 91.7194 97.6504 91.7594 97.4948 91.8408C97.3392 91.9222 97.2071 92.0422 97.1112 92.1893C96.7808 92.8829 96.6438 93.6528 96.7147 94.4178Z" fill="#E1E6E9"/>
<path d="M102.908 94.4179C102.888 93.7798 102.971 93.1428 103.154 92.5311C103.286 92.1084 103.532 91.73 103.865 91.4374C104.203 91.1722 104.625 91.0365 105.054 91.0546C105.378 91.044 105.699 91.1195 105.984 91.2733C106.258 91.4101 106.486 91.624 106.64 91.8886C106.833 92.1855 106.972 92.5141 107.051 92.8593C107.169 93.3699 107.219 93.894 107.201 94.4179C107.218 95.0458 107.139 95.6727 106.969 96.2772C106.84 96.7056 106.593 97.0892 106.258 97.3847C105.914 97.6497 105.488 97.7853 105.054 97.7675C104.769 97.7827 104.485 97.7284 104.225 97.6094C103.966 97.4903 103.739 97.31 103.564 97.0839C103.06 96.291 102.829 95.3544 102.908 94.4179ZM103.742 94.4179C103.669 95.155 103.801 95.898 104.125 96.5643C104.219 96.7281 104.355 96.8645 104.518 96.9604C104.68 97.0562 104.865 97.1082 105.054 97.1112C105.245 97.1079 105.432 97.0559 105.597 96.9602C105.762 96.8645 105.9 96.7282 105.998 96.5643C106.309 95.8942 106.436 95.1534 106.367 94.4179C106.435 93.6779 106.308 92.9329 105.998 92.2577C105.897 92.0981 105.758 91.9659 105.593 91.8728C105.428 91.7798 105.243 91.7289 105.054 91.7245C104.879 91.7181 104.704 91.7575 104.549 91.8391C104.393 91.9206 104.261 92.0413 104.166 92.1893C103.818 92.8776 103.671 93.6499 103.742 94.4179Z" fill="#E1E6E9"/>
<path d="M113.299 97.6583H112.479V92.5177C112.248 92.7318 111.99 92.9156 111.713 93.0646C111.445 93.233 111.161 93.375 110.865 93.4884V92.7091C111.295 92.5043 111.695 92.2422 112.055 91.9298C112.348 91.689 112.59 91.3914 112.766 91.0548H113.299V97.6583Z" fill="#E1E6E9"/>
<path d="M88.4706 64.7771C85.8747 64.7771 83.3371 65.5469 81.1787 66.9891C79.0203 68.4313 77.3381 70.4811 76.3447 72.8794C75.3513 75.2777 75.0913 77.9167 75.5978 80.4627C76.1042 83.0087 77.3542 85.3473 79.1898 87.1829C81.0254 89.0184 83.364 90.2685 85.91 90.7749C88.456 91.2813 91.095 91.0214 93.4933 90.028C95.8916 89.0346 97.9414 87.3524 99.3836 85.194C100.826 83.0356 101.596 80.498 101.596 77.9021C101.597 76.178 101.259 74.4705 100.6 72.8773C99.9412 71.284 98.9745 69.8364 97.7554 68.6173C96.5362 67.3982 95.0886 66.4315 93.4954 65.7725C91.9022 65.1136 90.1947 64.7753 88.4706 64.7771Z" fill="#FFDA45"/>
<path d="M87.4999 82.9884L82.7284 78.2169L84.6698 76.2892L87.4999 79.1193L93.4471 73.172L95.3885 75.0997L87.4999 82.9884Z" fill="#330099"/>
</svg>
